<svg xmlns="http://www.w3.org/2000/svg" xmlns:xlink="http://www.w3.org/1999/xlink" width="500" zoomAndPan="magnify" viewBox="0 0 375 374.999991" height="500" preserveAspectRatio="xMidYMid meet" version="1.0"><defs><g/><clipPath id="93deaf61c9"><path d="M 25.328125 135.730469 L 106.328125 135.730469 L 106.328125 239.230469 L 25.328125 239.230469 Z M 25.328125 135.730469 " clip-rule="nonzero"/></clipPath><clipPath id="e4525b6f44"><path d="M 28.496094 151.925781 L 103.496094 151.925781 L 103.496094 223.175781 L 28.496094 223.175781 Z M 28.496094 151.925781 " clip-rule="nonzero"/></clipPath></defs><g fill="#000000" fill-opacity="1"><g transform="translate(121.559056, 203.899498)"><g><path d="M 3.675781 0 L 13.714844 0 L 13.714844 -9.886719 L 17.492188 -9.886719 L 22.460938 0 L 33.839844 0 L 27.429688 -11.726562 C 31.105469 -13.765625 33.191406 -17.441406 33.191406 -22.3125 C 33.191406 -30.011719 27.976562 -34.785156 19.527344 -34.785156 L 3.675781 -34.785156 Z M 13.515625 -17.886719 L 13.515625 -26.585938 L 18.1875 -26.585938 C 21.367188 -26.585938 23.105469 -25.042969 23.105469 -22.261719 C 23.105469 -19.480469 21.367188 -17.886719 18.1875 -17.886719 Z M 13.515625 -17.886719 "/></g></g></g><g fill="#000000" fill-opacity="1"><g transform="translate(157.334138, 203.899498)"><g><path d="M 0.25 0 L 10.882812 0 L 12.769531 -4.917969 L 24.648438 -4.917969 L 26.535156 0 L 37.21875 0 L 23.703125 -34.785156 L 13.765625 -34.785156 Z M 14.859375 -12.273438 L 18.734375 -23.054688 L 22.609375 -12.273438 Z M 14.859375 -12.273438 "/></g></g></g><g fill="#000000" fill-opacity="1"><g transform="translate(194.79859, 203.899498)"><g><path d="M 3.675781 0 L 13.714844 0 L 13.714844 -10.335938 L 25.34375 -10.335938 L 25.34375 -19.03125 L 13.714844 -19.03125 L 13.714844 -25.839844 L 26.632812 -25.839844 L 26.632812 -34.785156 L 3.675781 -34.785156 Z M 3.675781 0 "/></g></g></g><g fill="#000000" fill-opacity="1"><g transform="translate(223.319289, 203.899498)"><g><path d="M 3.675781 0 L 13.714844 0 L 13.714844 -34.785156 L 3.675781 -34.785156 Z M 3.675781 0 "/></g></g></g><g fill="#000000" fill-opacity="1"><g transform="translate(240.709962, 203.899498)"><g><path d="M 20.621094 0.746094 L 21.167969 0.746094 L 22.0625 2.832031 C 23.902344 7.105469 27.28125 9.292969 32.199219 9.292969 L 37.367188 9.292969 L 37.367188 2.234375 L 34.832031 2.234375 C 32 2.234375 31.253906 1.738281 30.3125 -0.398438 L 29.914062 -1.339844 C 35.828125 -4.222656 39.554688 -10.085938 39.554688 -17.390625 C 39.554688 -28.027344 31.703125 -35.527344 20.621094 -35.527344 C 9.539062 -35.527344 1.691406 -28.027344 1.691406 -17.390625 C 1.691406 -6.757812 9.539062 0.746094 20.621094 0.746094 Z M 11.875 -17.390625 C 11.875 -22.609375 15.503906 -26.238281 20.621094 -26.238281 C 25.789062 -26.238281 29.367188 -22.609375 29.367188 -17.390625 C 29.367188 -12.175781 25.789062 -8.546875 20.621094 -8.546875 C 15.503906 -8.546875 11.875 -12.175781 11.875 -17.390625 Z M 11.875 -17.390625 "/></g></g></g><g fill="#000000" fill-opacity="1"><g transform="translate(282.000374, 203.899498)"><g><path d="M 18.632812 0.746094 C 28.027344 0.746094 33.839844 -4.96875 33.839844 -14.3125 L 33.839844 -34.785156 L 23.851562 -34.785156 L 23.851562 -14.957031 C 23.851562 -10.832031 22.113281 -8.644531 18.632812 -8.644531 C 15.15625 -8.644531 13.417969 -10.832031 13.417969 -14.957031 L 13.417969 -34.785156 L 3.378906 -34.785156 L 3.378906 -14.3125 C 3.378906 -4.96875 9.242188 0.746094 18.632812 0.746094 Z M 18.632812 0.746094 "/></g></g></g><g fill="#000000" fill-opacity="1"><g transform="translate(319.266092, 203.899498)"><g><path d="M 3.675781 0 L 28.074219 0 L 28.074219 -8.199219 L 13.613281 -8.199219 L 13.613281 -13.566406 L 26.1875 -13.566406 L 26.1875 -21.617188 L 13.613281 -21.617188 L 13.613281 -26.683594 L 27.527344 -26.683594 L 27.527344 -34.785156 L 3.675781 -34.785156 Z M 3.675781 0 "/></g></g></g><g clip-path="url(#93deaf61c9)"><path fill="#ffffff" d="M 25.332031 135.730469 L 106.328125 135.730469 L 106.328125 239.230469 L 25.332031 239.230469 L 25.332031 135.730469 " fill-opacity="1" fill-rule="nonzero"/></g><g clip-path="url(#e4525b6f44)"><path fill="#001319" d="M 102.722656 151.925781 L 57.355469 151.925781 C 41.484375 151.925781 28.496094 164.523438 28.496094 179.917969 C 28.496094 191.761719 36.183594 201.953125 46.957031 206.019531 L 29.273438 223.175781 L 74.640625 223.175781 C 90.511719 223.175781 103.496094 210.578125 103.496094 195.183594 C 103.496094 183.339844 95.8125 173.148438 85.039062 169.082031 Z M 46.957031 206.019531 L 62.691406 190.757812 L 57.355469 190.757812 C 51.210938 190.757812 46.183594 185.878906 46.183594 179.917969 C 46.183594 173.957031 51.210938 169.082031 57.355469 169.082031 L 85.039062 169.082031 L 69.300781 184.34375 L 74.640625 184.34375 C 80.785156 184.34375 85.8125 189.222656 85.8125 195.183594 C 85.8125 201.144531 80.785156 206.019531 74.640625 206.019531 Z M 46.957031 206.019531 " fill-opacity="1" fill-rule="evenodd"/></g></svg>